<?xml version="1.0" encoding="UTF-8"?>
<!DOCTYPE svg PUBLIC "-//W3C//DTD SVG 1.1//EN" "http://www.w3.org/Graphics/SVG/1.1/DTD/svg11.dtd">
<svg xmlns="http://www.w3.org/2000/svg" version="1.1" width="601px" height="365px" style="shape-rendering:geometricPrecision; text-rendering:geometricPrecision; image-rendering:optimizeQuality; fill-rule:evenodd; clip-rule:evenodd" xmlns:xlink="http://www.w3.org/1999/xlink">
<g><path style="opacity:0.004" fill="#000000" d="M 359.5,1.5 C 360.833,2.16667 360.833,2.16667 359.5,1.5 Z"/></g>
<g><path style="opacity:0.004" fill="#000000" d="M 492.5,4.5 C 493.833,5.16667 493.833,5.16667 492.5,4.5 Z"/></g>
<g><path style="opacity:0.004" fill="#000000" d="M 235.5,17.5 C 236.833,18.1667 236.833,18.1667 235.5,17.5 Z"/></g>
<g><path style="opacity:0.004" fill="#000000" d="M 502.5,19.5 C 503.833,20.1667 503.833,20.1667 502.5,19.5 Z"/></g>
<g><path style="opacity:0.004" fill="#000000" d="M 123.5,23.5 C 124.833,24.1667 124.833,24.1667 123.5,23.5 Z"/></g>
<g><path style="opacity:0.997" fill="#f9f9f9" d="M 155.5,247.5 C 154.5,247.5 153.5,247.5 152.5,247.5C 151.508,247.328 150.842,247.662 150.5,248.5C 107.573,263.364 64.2395,277.031 20.5,289.5C 19.479,288.998 19.3123,288.332 20,287.5C 44.6745,276.447 67.5078,262.614 88.5,246C 105.026,231.14 117.193,213.307 125,192.5C 131.204,167.555 139.204,143.222 149,119.5C 173.194,71.6508 211.361,41.1508 263.5,28C 307.741,18.5823 349.407,25.2489 388.5,48C 401.352,55.5906 413.685,63.9239 425.5,73C 456.127,93.1235 489.46,100.457 525.5,95C 542.723,92.6112 559.723,89.1112 576.5,84.5C 577.167,84.8333 577.833,85.1667 578.5,85.5C 559.245,95.1985 539.578,104.032 519.5,112C 399.757,160.537 278.424,205.704 155.5,247.5 Z M 370.5,140.5 C 347.44,111.153 317.44,99.9862 280.5,107C 246.461,116.538 225.127,138.371 216.5,172.5C 214.844,182.031 214.01,191.697 214,201.5C 204.738,205.368 195.238,208.201 185.5,210C 186.123,179.794 194.623,151.961 211,126.5C 247.1,83.2637 291.933,71.097 345.5,90C 366.642,100.053 384.976,113.72 400.5,131C 400.245,132.326 399.578,133.326 398.5,134C 390.333,137.167 382.167,140.333 374,143.5C 372.358,143.022 371.191,142.022 370.5,140.5 Z M 369.5,142.5 C 370.85,143.824 370.683,144.824 369,145.5C 319.42,165.37 269.253,183.704 218.5,200.5C 217.031,197.886 216.364,195.052 216.5,192C 216.883,185.743 217.55,179.243 218.5,172.5C 232.885,127.29 263.885,105.79 311.5,108C 335.742,111.607 355.075,123.107 369.5,142.5 Z"/></g>
<g><path style="opacity:0.004" fill="#000000" d="M 499.5,44.5 C 500.833,45.1667 500.833,45.1667 499.5,44.5 Z"/></g>
<g><path style="opacity:0.004" fill="#000000" d="M 81.5,46.5 C 82.8333,47.1667 82.8333,47.1667 81.5,46.5 Z"/></g>
<g><path style="opacity:0.004" fill="#000000" d="M 468.5,46.5 C 469.833,47.1667 469.833,47.1667 468.5,46.5 Z"/></g>
<g><path style="opacity:0.004" fill="#000000" d="M 596.5,47.5 C 597.833,48.1667 597.833,48.1667 596.5,47.5 Z"/></g>
<g><path style="opacity:0.004" fill="#000000" d="M 197.5,50.5 C 198.833,51.1667 198.833,51.1667 197.5,50.5 Z"/></g>
<g><path style="opacity:0.004" fill="#000000" d="M 457.5,54.5 C 458.833,55.1667 458.833,55.1667 457.5,54.5 Z"/></g>
<g><path style="opacity:0.004" fill="#000000" d="M 96.5,59.5 C 97.8333,60.1667 97.8333,60.1667 96.5,59.5 Z"/></g>
<g><path style="opacity:0.004" fill="#000000" d="M 517.5,65.5 C 518.833,66.1667 518.833,66.1667 517.5,65.5 Z"/></g>
<g><path style="opacity:0.004" fill="#000000" d="M 57.5,80.5 C 58.8333,81.1667 58.8333,81.1667 57.5,80.5 Z"/></g>
<g><path style="opacity:0.004" fill="#000000" d="M 74.5,89.5 C 75.8333,90.1667 75.8333,90.1667 74.5,89.5 Z"/></g>
<g><path style="opacity:0.004" fill="#000000" d="M 51.5,94.5 C 52.8333,95.1667 52.8333,95.1667 51.5,94.5 Z"/></g>
<g><path style="opacity:0.004" fill="#000000" d="M 127.5,94.5 C 128.833,95.1667 128.833,95.1667 127.5,94.5 Z"/></g>
<g><path style="opacity:0.004" fill="#000000" d="M 553.5,101.5 C 554.833,102.167 554.833,102.167 553.5,101.5 Z"/></g>
<g><path style="opacity:0.004" fill="#000000" d="M 117.5,102.5 C 118.833,103.167 118.833,103.167 117.5,102.5 Z"/></g>
<g><path style="opacity:0.961" fill="#c8c8c8" d="M 370.5,140.5 C 369.662,140.842 369.328,141.508 369.5,142.5C 355.075,123.107 335.742,111.607 311.5,108C 263.885,105.79 232.885,127.29 218.5,172.5C 218.631,171.761 218.464,171.094 218,170.5C 217.722,171.416 217.222,172.082 216.5,172.5C 225.127,138.371 246.461,116.538 280.5,107C 317.44,99.9862 347.44,111.153 370.5,140.5 Z"/></g>
<g><path style="opacity:0.004" fill="#000000" d="M 99.5,117.5 C 100.833,118.167 100.833,118.167 99.5,117.5 Z"/></g>
<g><path style="opacity:0.004" fill="#000000" d="M 88.5,134.5 C 89.8333,135.167 89.8333,135.167 88.5,134.5 Z"/></g>
<g><path style="opacity:0.004" fill="#000000" d="M 481.5,135.5 C 482.833,136.167 482.833,136.167 481.5,135.5 Z"/></g>
<g><path style="opacity:0.004" fill="#000000" d="M 507.5,142.5 C 508.833,143.167 508.833,143.167 507.5,142.5 Z"/></g>
<g><path style="opacity:0.004" fill="#000000" d="M 115.5,161.5 C 116.833,162.167 116.833,162.167 115.5,161.5 Z"/></g>
<g><path style="opacity:0.004" fill="#000000" d="M 5.5,168.5 C 6.83333,169.167 6.83333,169.167 5.5,168.5 Z"/></g>
<g><path style="opacity:0.998" fill="#fafafa" d="M 402.5,191.5 C 412.172,191.334 421.839,191.5 431.5,192C 441.927,193.099 448.761,198.599 452,208.5C 448.751,262.505 423.917,303.339 377.5,331C 337.271,351.875 295.604,355.208 252.5,341C 235.587,334.549 220.253,325.549 206.5,314C 189.009,298.82 189.343,283.82 207.5,269C 212.14,264.682 217.14,260.849 222.5,257.5C 253.278,295.786 292.278,307.619 339.5,293C 374.841,277.983 395.675,251.483 402,213.5C 402.5,206.174 402.666,198.841 402.5,191.5 Z"/></g>
<g><path style="opacity:0.004" fill="#000000" d="M 551.5,191.5 C 552.833,192.167 552.833,192.167 551.5,191.5 Z"/></g>
<g><path style="opacity:0.004" fill="#000000" d="M 323.5,196.5 C 324.833,197.167 324.833,197.167 323.5,196.5 Z"/></g>
<g><path style="opacity:0.004" fill="#000000" d="M 326.5,201.5 C 327.833,202.167 327.833,202.167 326.5,201.5 Z"/></g>
<g><path style="opacity:0.004" fill="#000000" d="M 28.5,222.5 C 29.8333,223.167 29.8333,223.167 28.5,222.5 Z"/></g>
<g><path style="opacity:0.004" fill="#000000" d="M 305.5,228.5 C 306.833,229.167 306.833,229.167 305.5,228.5 Z"/></g>
<g><path style="opacity:0.004" fill="#000000" d="M 25.5,229.5 C 26.8333,230.167 26.8333,230.167 25.5,229.5 Z"/></g>
<g><path style="opacity:0.004" fill="#000000" d="M 58.5,233.5 C 59.8333,234.167 59.8333,234.167 58.5,233.5 Z"/></g>
<g><path style="opacity:0.004" fill="#000000" d="M 17.5,243.5 C 18.8333,244.167 18.8333,244.167 17.5,243.5 Z"/></g>
<g><path style="opacity:0.02" fill="#1f1f1f" d="M 152.5,247.5 C 151.994,249.105 151.327,249.439 150.5,248.5C 150.842,247.662 151.508,247.328 152.5,247.5 Z"/></g>
<g><path style="opacity:0.004" fill="#000000" d="M 155.5,247.5 C 156.833,248.167 156.833,248.167 155.5,247.5 Z"/></g>
<g><path style="opacity:0.974" fill="#cecece" d="M 380.5,194.5 C 381.5,194.5 382.5,194.5 383.5,194.5C 377.462,243.537 349.795,270.204 300.5,274.5C 276.365,273.521 256.032,264.354 239.5,247C 240.025,246.308 240.692,245.808 241.5,245.5C 259.956,264.882 282.623,273.382 309.5,271C 352.436,263.235 376.103,237.735 380.5,194.5 Z"/></g>
<g><path style="opacity:0.004" fill="#000000" d="M 317.5,254.5 C 318.833,255.167 318.833,255.167 317.5,254.5 Z"/></g>
<g><path style="opacity:0.004" fill="#000000" d="M 189.5,263.5 C 190.833,264.167 190.833,264.167 189.5,263.5 Z"/></g>
<g><path style="opacity:0.004" fill="#000000" d="M 563.5,263.5 C 564.833,264.167 564.833,264.167 563.5,263.5 Z"/></g>
<g><path style="opacity:0.004" fill="#000000" d="M 2.5,266.5 C 3.83333,267.167 3.83333,267.167 2.5,266.5 Z"/></g>
<g><path style="opacity:0.004" fill="#000000" d="M 570.5,269.5 C 571.833,270.167 571.833,270.167 570.5,269.5 Z"/></g>
<g><path style="opacity:0.004" fill="#000000" d="M 362.5,272.5 C 363.833,273.167 363.833,273.167 362.5,272.5 Z"/></g>
<g><path style="opacity:0.004" fill="#000000" d="M 585.5,276.5 C 586.833,277.167 586.833,277.167 585.5,276.5 Z"/></g>
<g><path style="opacity:0.004" fill="#000000" d="M 348.5,283.5 C 349.833,284.167 349.833,284.167 348.5,283.5 Z"/></g>
<g><path style="opacity:0.004" fill="#000000" d="M 469.5,288.5 C 470.833,289.167 470.833,289.167 469.5,288.5 Z"/></g>
<g><path style="opacity:0.004" fill="#000000" d="M 305.5,290.5 C 306.833,291.167 306.833,291.167 305.5,290.5 Z"/></g>
<g><path style="opacity:0.004" fill="#000000" d="M 43.5,291.5 C 44.8333,292.167 44.8333,292.167 43.5,291.5 Z"/></g>
<g><path style="opacity:0.004" fill="#000000" d="M 543.5,297.5 C 544.833,298.167 544.833,298.167 543.5,297.5 Z"/></g>
<g><path style="opacity:0.004" fill="#000000" d="M 129.5,305.5 C 130.833,306.167 130.833,306.167 129.5,305.5 Z"/></g>
<g><path style="opacity:0.004" fill="#000000" d="M 583.5,307.5 C 584.833,308.167 584.833,308.167 583.5,307.5 Z"/></g>
<g><path style="opacity:0.004" fill="#000000" d="M 158.5,309.5 C 159.833,310.167 159.833,310.167 158.5,309.5 Z"/></g>
<g><path style="opacity:0.004" fill="#000000" d="M 23.5,310.5 C 24.8333,311.167 24.8333,311.167 23.5,310.5 Z"/></g>
<g><path style="opacity:0.004" fill="#000000" d="M 19.5,326.5 C 20.8333,327.167 20.8333,327.167 19.5,326.5 Z"/></g>
<g><path style="opacity:0.004" fill="#000000" d="M 117.5,332.5 C 118.833,333.167 118.833,333.167 117.5,332.5 Z"/></g>
<g><path style="opacity:0.004" fill="#000000" d="M 502.5,333.5 C 503.833,334.167 503.833,334.167 502.5,333.5 Z"/></g>
<g><path style="opacity:0.004" fill="#000000" d="M 190.5,338.5 C 191.833,339.167 191.833,339.167 190.5,338.5 Z"/></g>
<g><path style="opacity:0.004" fill="#000000" d="M 4.5,345.5 C 5.83333,346.167 5.83333,346.167 4.5,345.5 Z"/></g>
<g><path style="opacity:0.004" fill="#000000" d="M 9.5,345.5 C 10.8333,346.167 10.8333,346.167 9.5,345.5 Z"/></g>
<g><path style="opacity:0.004" fill="#000000" d="M 382.5,347.5 C 383.833,348.167 383.833,348.167 382.5,347.5 Z"/></g>
<g><path style="opacity:0.004" fill="#000000" d="M 52.5,350.5 C 53.8333,351.167 53.8333,351.167 52.5,350.5 Z"/></g>
<g><path style="opacity:0.004" fill="#000000" d="M 189.5,350.5 C 190.833,351.167 190.833,351.167 189.5,350.5 Z"/></g>
<g><path style="opacity:0.004" fill="#000000" d="M 325.5,350.5 C 326.833,351.167 326.833,351.167 325.5,350.5 Z"/></g>
<g><path style="opacity:0.004" fill="#000000" d="M 491.5,355.5 C 492.833,356.167 492.833,356.167 491.5,355.5 Z"/></g>
<g><path style="opacity:0.004" fill="#000000" d="M 194.5,360.5 C 195.833,361.167 195.833,361.167 194.5,360.5 Z"/></g>
<g><path style="opacity:0.004" fill="#000000" d="M 462.5,364.5 C 461.833,363.167 461.833,363.167 462.5,364.5 Z"/></g>
</svg>
